<?xml version="1.0" standalone="no"?>
<!DOCTYPE svg PUBLIC "-//W3C//DTD SVG 20010904//EN"
 "http://www.w3.org/TR/2001/REC-SVG-20010904/DTD/svg10.dtd">
<svg version="1.0" xmlns="http://www.w3.org/2000/svg"
 width="512.000000pt" height="512.000000pt" viewBox="0 0 512.000000 512.000000"
 preserveAspectRatio="xMidYMid meet">

<g transform="translate(0.000000,512.000000) scale(0.100000,-0.100000)"
fill="#000000" stroke="none">
<path d="M534 2955 c0 -49 1 -71 3 -48 2 23 2 64 0 90 -2 26 -3 8 -3 -42z"/>
<path d="M534 2555 c0 -143 2 -200 3 -127 2 73 2 190 0 260 -1 70 -3 10 -3
-133z"/>
<path d="M534 2160 c0 -52 1 -74 3 -47 2 26 2 68 0 95 -2 26 -3 4 -3 -48z"/>
<path d="M4585 1465 c0 -357 1 -502 2 -322 2 181 2 473 0 650 -1 177 -2 30 -2
-328z"/>
<path d="M4571 794 c-2 -56 -86 -169 -157 -210 -10 -7 -16 -15 -13 -18 10 -10
90 55 126 102 33 43 58 113 49 135 -2 7 -5 3 -5 -9z"/>
<path d="M2183 693 c-3 -16 -6 -36 -5 -46 0 -9 -3 -15 -9 -12 -8 6 -10 1 -13
-37 -1 -7 -3 -15 -6 -18 -3 -3 -14 -15 -24 -27 l-19 -23 80 0 80 0 8 43 c4 23
7 50 6 60 -1 10 4 17 13 17 9 0 16 7 16 15 0 10 -10 15 -30 15 -19 0 -30 5
-30 14 0 12 -28 25 -52 26 -4 0 -11 -12 -15 -27z"/>
</g>
</svg>
