<?xml version="1.0" standalone="no"?>
<!DOCTYPE svg PUBLIC "-//W3C//DTD SVG 20010904//EN"
 "http://www.w3.org/TR/2001/REC-SVG-20010904/DTD/svg10.dtd">
<svg version="1.0" xmlns="http://www.w3.org/2000/svg"
 width="108.000000pt" height="108.000000pt" viewBox="0 0 108.000000 108.000000"
 preserveAspectRatio="xMidYMid meet">
<metadata>
Created by potrace 1.14, written by Peter Selinger 2001-2017
</metadata>
<g transform="translate(0.000000,108.000000) scale(0.100000,-0.100000)"
fill="#000000" stroke="none">
<path d="M397 1035 c-27 -7 -51 -15 -53 -18 -3 -2 4 -24 14 -48 14 -32 43 -65
103 -115 46 -39 94 -76 107 -83 27 -15 28 -28 2 -36 -13 -4 -37 2 -61 14 -22
12 -46 21 -54 21 -23 0 -18 -49 16 -155 16 -52 27 -100 24 -106 -15 -23 -40 0
-66 61 -40 95 -52 91 -44 -17 6 -76 5 -91 -9 -102 -26 -22 -35 -3 -42 92 -9
119 -34 112 -34 -10 0 -28 -5 -55 -11 -59 -23 -14 -34 18 -34 96 0 44 0 80 -1
80 -1 0 -13 -25 -28 -56 -25 -53 -46 -64 -46 -24 0 10 12 51 26 91 22 61 26
85 22 148 -3 42 -10 87 -18 101 l-13 24 -45 -49 c-25 -28 -63 -87 -85 -133
-36 -76 -41 -92 -45 -181 -5 -115 7 -178 52 -270 61 -126 208 -241 347 -271
63 -14 212 -9 271 9 l37 12 -15 43 c-11 32 -34 61 -88 109 -41 37 -90 76 -110
88 -42 25 -45 36 -12 45 16 4 38 -2 63 -17 22 -12 47 -20 55 -16 19 7 13 46
-28 169 -14 43 -22 82 -19 88 15 24 40 2 66 -60 40 -94 51 -90 44 17 -6 90 1
120 27 110 15 -5 28 -74 28 -149 0 -21 4 -38 9 -38 13 0 21 37 21 97 0 28 5
55 11 59 23 14 34 -18 34 -96 l0 -80 28 55 c27 54 47 64 47 25 0 -10 -11 -50
-25 -88 -14 -40 -25 -91 -25 -120 0 -54 19 -152 30 -152 26 0 127 147 155 225
22 62 31 215 16 284 -39 181 -190 338 -372 386 -66 18 -207 18 -272 0z"/>
</g>
</svg>
